<svg id="Layer_1" data-name="Layer 1" xmlns="http://www.w3.org/2000/svg" viewBox="0 0 686.6 228.51"><defs><style>.cls-1{fill:#fff;}</style></defs><path class="cls-1" d="M930.17,476.59l-21.74,50.84-21.74-50.84H871.11V545h13.71V500.48L903.23,545h10.4l18.31-44.47V545h13.71V476.59Z" transform="translate(-616.7 -425.74)"/><path class="cls-1" d="M1009.6,516.64a28.55,28.55,0,0,0-3.38-14.05,23.49,23.49,0,0,0-9.51-9.44,30.79,30.79,0,0,0-28.05.1,23.83,23.83,0,0,0-9.61,9.78,30.89,30.89,0,0,0-3.42,14.78,30.35,30.35,0,0,0,3.47,14.7,24.68,24.68,0,0,0,9.71,9.85,28.45,28.45,0,0,0,14,3.47c6.48,0,11.92-1.67,16.38-5.05a24.6,24.6,0,0,0,9-12.87H993.42q-3.23,6.57-10.85,6.56a12.75,12.75,0,0,1-8.92-3.33,13.53,13.53,0,0,1-4.12-9.2h39.67A32.68,32.68,0,0,0,1009.6,516.64Zm-40-3.91a13.55,13.55,0,0,1,4.24-8.58,12.46,12.46,0,0,1,8.58-3.07,13.59,13.59,0,0,1,9.11,3.17,11,11,0,0,1,3.81,8.48Z" transform="translate(-616.7 -425.74)"/><path class="cls-1" d="M1040.19,492.36a19.33,19.33,0,0,0-6.9,6.76v-8.41h-13.71V545h13.71v-27c0-5,1.1-8.56,3.28-10.57s5.44-3,9.75-3h3.62V489.91A19.26,19.26,0,0,0,1040.19,492.36Z" transform="translate(-616.7 -425.74)"/><path class="cls-1" d="M1082.35,534.07a11.32,11.32,0,0,1-9.3-4.25q-3.42-4.27-3.43-12t3.43-12.08a11.28,11.28,0,0,1,9.3-4.26,11.41,11.41,0,0,1,6.9,2,10.73,10.73,0,0,1,4,5.54H1108a24.61,24.61,0,0,0-8.87-14.17q-6.62-5-16.7-5a27.46,27.46,0,0,0-13.91,3.47,24.23,24.23,0,0,0-9.49,9.78,33.41,33.41,0,0,0,0,29.49,24.53,24.53,0,0,0,9.49,9.8,27.66,27.66,0,0,0,13.91,3.47c6.66,0,12.22-1.72,16.65-5.2a25,25,0,0,0,8.92-14h-14.79Q1090.68,534.09,1082.35,534.07Z" transform="translate(-616.7 -425.74)"/><path class="cls-1" d="M1157.28,490.71v7.71a21.69,21.69,0,0,0-7.29-6.16,22.19,22.19,0,0,0-10.64-2.44,23.52,23.52,0,0,0-12.58,3.43,24.08,24.08,0,0,0-8.92,9.78,31.46,31.46,0,0,0-3.29,14.59,31.94,31.94,0,0,0,3.29,14.74,25,25,0,0,0,8.92,9.95,23,23,0,0,0,12.48,3.52,22.24,22.24,0,0,0,10.74-2.51,20.61,20.61,0,0,0,7.29-6.31V545h13.8V490.71Zm-2,35.69a13.71,13.71,0,0,1-5.29,5.46,14,14,0,0,1-7.15,1.92,13.57,13.57,0,0,1-7-1.94,14.44,14.44,0,0,1-5.27-5.64,17.68,17.68,0,0,1-2-8.58,16.94,16.94,0,0,1,2-8.46,13.76,13.76,0,0,1,12.27-7.31,14.17,14.17,0,0,1,7.15,1.92,13.6,13.6,0,0,1,5.29,5.49,17.32,17.32,0,0,1,2,8.55A17.53,17.53,0,0,1,1155.31,526.4Z" transform="translate(-616.7 -425.74)"/><path class="cls-1" d="M1223.58,472.46v25.77a20.17,20.17,0,0,0-7.65-6.11,23,23,0,0,0-10.09-2.3A23.62,23.62,0,0,0,1184.27,503a31.09,31.09,0,0,0-3.29,14.59,31.57,31.57,0,0,0,3.29,14.74,24.5,24.5,0,0,0,8.94,9.95,23.32,23.32,0,0,0,12.53,3.52,22.45,22.45,0,0,0,10.69-2.44,18.64,18.64,0,0,0,7.15-6.47v8h13.9V472.46Zm-1.87,53.94a13.82,13.82,0,0,1-5.28,5.46,14,14,0,0,1-7.16,1.92,13.57,13.57,0,0,1-7-1.94,14.47,14.47,0,0,1-5.28-5.64,17.68,17.68,0,0,1-2-8.58,16.94,16.94,0,0,1,2-8.46,13.77,13.77,0,0,1,12.28-7.31,14.21,14.21,0,0,1,7.16,1.92,13.7,13.7,0,0,1,5.28,5.49,17.32,17.32,0,0,1,2,8.55A17.53,17.53,0,0,1,1221.71,526.4Z" transform="translate(-616.7 -425.74)"/><path class="cls-1" d="M1299.63,503.12a25.37,25.37,0,0,0-10-9.83,30.81,30.81,0,0,0-28.41,0,25.44,25.44,0,0,0-10,9.83,29,29,0,0,0-3.67,14.69,29.53,29.53,0,0,0,3.58,14.7,25.08,25.08,0,0,0,9.85,9.85,28.7,28.7,0,0,0,14.09,3.47,29.87,29.87,0,0,0,14.36-3.47,26.31,26.31,0,0,0,10.18-9.85,28.41,28.41,0,0,0,3.77-14.7A28.89,28.89,0,0,0,1299.63,503.12Zm-12.39,23.51a13.41,13.41,0,0,1-5.25,5.45,14.38,14.38,0,0,1-7,1.79,12.73,12.73,0,0,1-9.73-4.14q-3.88-4.17-3.88-11.92c0-5.15,1.31-9.1,3.95-11.88a13.11,13.11,0,0,1,9.85-4.18,13.36,13.36,0,0,1,10,4.18c2.71,2.78,4.07,6.73,4.07,11.88A18.48,18.48,0,0,1,1287.24,526.63Z" transform="translate(-616.7 -425.74)"/><path class="cls-1" d="M908.29,568.2V575a18.59,18.59,0,0,0-6.36-5.4,19.32,19.32,0,0,0-9.25-2.13,20.71,20.71,0,0,0-10.95,3A21.17,21.17,0,0,0,874,579a27.5,27.5,0,0,0-2.85,12.7A27.93,27.93,0,0,0,874,604.49a21.52,21.52,0,0,0,7.77,8.65,20,20,0,0,0,10.88,3.09,19.44,19.44,0,0,0,9.32-2.18,17.74,17.74,0,0,0,6.36-5.51v6.9h12V568.2Zm-1.71,31.09a12,12,0,0,1-4.6,4.79,12.3,12.3,0,0,1-6.23,1.65,11.77,11.77,0,0,1-6.09-1.7,12.91,12.91,0,0,1-4.6-4.91,15.31,15.31,0,0,1-1.75-7.46,14.81,14.81,0,0,1,1.75-7.38,12.46,12.46,0,0,1,4.55-4.72,12.48,12.48,0,0,1,12.37,0,12,12,0,0,1,4.6,4.8,17.11,17.11,0,0,1,0,14.91Z" transform="translate(-616.7 -425.74)"/><path class="cls-1" d="M952.29,552.35v63.09h11.94V552.35Z" transform="translate(-616.7 -425.74)"/><path class="cls-1" d="M1010.11,568.2V575a18.55,18.55,0,0,0-6.35-5.4,19.38,19.38,0,0,0-9.26-2.13,20.66,20.66,0,0,0-11,3,21.17,21.17,0,0,0-7.77,8.53,27.5,27.5,0,0,0-2.85,12.7,27.93,27.93,0,0,0,2.85,12.83,21.52,21.52,0,0,0,7.77,8.65,20,20,0,0,0,10.88,3.09,19.48,19.48,0,0,0,9.33-2.18,17.79,17.79,0,0,0,6.35-5.51v6.9h12V568.2Zm-1.7,31.09a12,12,0,0,1-4.61,4.79,12.38,12.38,0,0,1-6.23,1.65,11.72,11.72,0,0,1-6.09-1.7,12.91,12.91,0,0,1-4.6-4.91,15.31,15.31,0,0,1-1.75-7.46,14.81,14.81,0,0,1,1.75-7.38,12.41,12.41,0,0,1,4.56-4.72,12.1,12.1,0,0,1,6.13-1.63,12.38,12.38,0,0,1,6.23,1.65,12,12,0,0,1,4.61,4.8,17.2,17.2,0,0,1,0,14.91Z" transform="translate(-616.7 -425.74)"/><path class="cls-1" d="M1126.81,572.85q-5.31-5.33-14-5.32a19,19,0,0,0-9.51,2.47,17,17,0,0,0-6.69,6.56,16.25,16.25,0,0,0-6.74-6.68,20.6,20.6,0,0,0-9.9-2.35,18.4,18.4,0,0,0-8,1.7,16,16,0,0,0-6,4.7V568.2h-11.94v47.24h11.94V589.36c0-3.69,1-6.52,2.85-8.48a10.39,10.39,0,0,1,7.82-3,10.09,10.09,0,0,1,7.67,3q2.8,2.94,2.8,8.48v26.08h12V589.36c0-3.69.94-6.52,2.86-8.48a11.5,11.5,0,0,1,15.38,0q2.8,2.94,2.81,8.48v26.08h11.93V587.73C1132.13,581.36,1130.36,576.42,1126.81,572.85Z" transform="translate(-616.7 -425.74)"/><path class="cls-1" d="M1177.6,568.2V575a18.93,18.93,0,0,0-6.35-5.4,19.43,19.43,0,0,0-9.25-2.13A20.46,20.46,0,0,0,1143.28,579a27.14,27.14,0,0,0-2.88,12.7,27.56,27.56,0,0,0,2.88,12.83,21.24,21.24,0,0,0,7.74,8.65,20.08,20.08,0,0,0,10.88,3.09,19.61,19.61,0,0,0,9.35-2.18,17.79,17.79,0,0,0,6.35-5.51v6.9h12V568.2Zm-1.72,31.09a12.07,12.07,0,0,1-4.6,4.79,12.34,12.34,0,0,1-6.21,1.65A11.77,11.77,0,0,1,1159,604a12.86,12.86,0,0,1-4.61-4.91,15.54,15.54,0,0,1-1.75-7.46,15,15,0,0,1,1.75-7.38,12.31,12.31,0,0,1,4.58-4.72,12.05,12.05,0,0,1,6.14-1.63,12.34,12.34,0,0,1,6.21,1.65,12,12,0,0,1,4.6,4.8,17,17,0,0,1,0,14.91Z" transform="translate(-616.7 -425.74)"/><path class="cls-1" d="M1241.12,572.85q-5.17-5.33-13.64-5.32a18.82,18.82,0,0,0-8.15,1.75,16.34,16.34,0,0,0-6.08,4.81V568.2h-11.94v47.24h11.94V589.36q0-5.64,2.85-8.65a10.23,10.23,0,0,1,7.81-3,10,10,0,0,1,7.67,3q2.81,3,2.81,8.65v26.08h11.93V587.73C1246.32,581.36,1244.6,576.42,1241.12,572.85Z" transform="translate(-616.7 -425.74)"/><path class="cls-1" d="M1300.11,579a22.29,22.29,0,0,0-8.75-8.56,26.67,26.67,0,0,0-24.73,0,22.22,22.22,0,0,0-8.75,8.56,25,25,0,0,0-3.19,12.8,25.68,25.68,0,0,0,3.11,12.8,21.76,21.76,0,0,0,8.59,8.56,24.83,24.83,0,0,0,12.27,3,25.88,25.88,0,0,0,12.49-3,22.77,22.77,0,0,0,8.86-8.56,24.66,24.66,0,0,0,3.29-12.8A25.35,25.35,0,0,0,1300.11,579Zm-10.79,20.47a11.58,11.58,0,0,1-4.57,4.75,12.62,12.62,0,0,1-6.09,1.55,11,11,0,0,1-8.49-3.61c-2.25-2.4-3.38-5.88-3.38-10.36s1.15-7.93,3.45-10.35a11.4,11.4,0,0,1,8.59-3.62,11.61,11.61,0,0,1,8.65,3.62c2.35,2.42,3.55,5.87,3.55,10.35A15.93,15.93,0,0,1,1289.32,599.5Z" transform="translate(-616.7 -425.74)"/><circle class="cls-1" cx="789.69" cy="638.62" r="15.64" transform="translate(-742.3 -227.23) rotate(-13.28)"/><circle class="cls-1" cx="715.47" cy="638.62" r="15.64" transform="translate(-744.29 -244.28) rotate(-13.28)"/><path class="cls-1" d="M790.35,438.45c2.67,9.67-.34,19.6,9.5,27.67,4.06,3.33,9.72,5.28,15.09,3.55,4.33-8.11-7.3-24.82-16.08-32.34,17.3,9.31,19.54,22.91,21.67,27.66,7.17-7.76,4.38-18.06.12-23.53-7.87-10.11-25-12.28-38.92-15.72C786.1,429.87,788.28,430.4,790.35,438.45Z" transform="translate(-616.7 -425.74)"/><path class="cls-1" d="M835.85,454.56c-3.92.76-8.85,3.74-10.2,9a9.87,9.87,0,0,0-.25,1.25,11.65,11.65,0,0,0-.13,1.9c3.24-1.51,10.58-7.45,23.64-4.43-7.28-.12-19.3,2.73-22.29,8-.08.15-.17.29-.24.44a4.91,4.91,0,0,0-.34.95c2,3.3,5.74,4.84,9.32,4.95,8.71.28,11.68-6.17,17.4-10,4.71-3.14,6.06-2.47,10.16-2.62C854.29,459.54,844.49,452.93,835.85,454.56Z" transform="translate(-616.7 -425.74)"/><path class="cls-1" d="M840.55,513.12a42.33,42.33,0,0,0-5.94-21.78c-.45-.75-.93-1.48-1.43-2.19A38.2,38.2,0,0,0,820,477.47h0a35,35,0,0,0-5.39-2.39h0a37.23,37.23,0,0,0-5-1.42c-.84-.18-1.69-.34-2.55-.46a37.41,37.41,0,0,0-5.19-.37,37.8,37.8,0,0,0-5.61.4c-.75.11-1.49.23-2.24.39q-9.63,25.1-19.34,50.16l-.12.3c-.36.86-.76,1.75-1.34,3.11-.67-1.26-1.2-2.13-1.59-3-.07-.14-.13-.27-.19-.41s-.11-.27-.16-.41q-8.67-22.65-17.24-45.3c-.67-1.75-1.34-3.5-2-5.25-3.23-8.48-6.47-16.94-9.66-25.45v0c-.69-1.77-1.36-3.54-2-5.34-.77-2.06-1.82-3.09-4.17-3.05-1.87,0-3.77.05-5.64.05-2.78.05-5.56.05-8.34.05-4.89,0-9.78,0-14.69.07-2.9.05-3,.34-3.09,3.29,0,.45,0,.91,0,1.39v20.94q0,48.25,0,96.48c0,.74,0,1.46,0,2.21.12,2.44.39,2.87,2.9,3,2.93.16,5.85.19,8.8.19h2.77c1.63,0,3.27-.15,4.92-.22a4.46,4.46,0,0,0,.54-.06,3.45,3.45,0,0,0,.46-.12,1.9,1.9,0,0,0,.7-.44,2.38,2.38,0,0,0,.53-1.78v0h0c-.07-2.49.1-5,.1-7.44q0-38.76,0-77.52h0V473.9c0-2.47,0-5,0-7.43a16.64,16.64,0,0,1,.43-2.49c.24,0,.48,0,.72-.05.26.62.52,1.25.79,1.87a9.7,9.7,0,0,1,.43,1.08c1.1,3,2.23,6.06,3.33,9.11h0q4.61,12.54,9.18,25.09,10.36,28.23,20.64,56.45c.48,1.25.93,2.52,1.39,3.76.36,1,.65,1.92,1,2.86a5.46,5.46,0,0,0,.27.6c.1.18.21.36.32.52a3.4,3.4,0,0,0,3.2,1.37c3.66-.17,7.33-.19,11-.1h0a2.59,2.59,0,0,0,2.56-1.2,1.71,1.71,0,0,0,.13-.23,7.42,7.42,0,0,0,.39-.89c1.48-4.24,3.09-8.44,4.65-12.66h0l.38-1q9.17-25.12,18.34-50.21c5.58,1.77,9.53,7.16,9.58,14.55.15,16.87,0,14,.05,30.8h-.22A46.34,46.34,0,0,1,768.57,592H738.92a46.31,46.31,0,0,1-46.31-46.3V490.25H642a25.33,25.33,0,0,0-25.34,25.34h50.58v30.08a71.63,71.63,0,0,0,71.64,71.64h29.65A71.68,71.68,0,0,0,839.28,557c.18-1.1.33-2.21.45-3.32,0,0,.07-1.29.16-3.54.23-5.61.63-17.2.68-29.54C840.58,518.1,840.57,515.6,840.55,513.12Z" transform="translate(-616.7 -425.74)"/></svg>