<svg id="Capa_1" data-name="Capa 1" xmlns="http://www.w3.org/2000/svg" viewBox="0 0 1080 418.12"><path d="M330.09,252.89C315.38,265.47,300,272.23,282,271.43c-16.57-.73-30.07-7.6-39.16-21.66-2.89-4.46-4.82-4.45-8.88-1.68-16.33,11.12-33.83,19.78-53.59,22.91a96.67,96.67,0,0,1-30.93.3c-27.65-4.55-46.15-23-48.77-51-3.59-38.4,7.41-72.31,35.7-99.31,15.81-15.09,35.16-20.57,56.8-16.16,34.61,7,49.18,46,28.34,75.3C211.26,194.53,197,203,180.61,208.54a200.19,200.19,0,0,1-38.82,8.64c-5.48.72-5.51,3.23-3.73,7.3,4.7,10.71,18,17.34,32.37,16.4,20.12-1.32,38-8.33,54.58-19.7,5.53-3.81,7.91-8.07,8-15,.18-28.92,8.79-55.14,28.33-76.84,17.22-19.11,38.08-30.13,64.86-24.77A50.72,50.72,0,0,1,352,118.12c.6-.44,1.16-.63,1.24-1,3.17-12.54,4.26-11.19,16-11,18.75.24,20.06,1.7,17.26,19.77q-8.46,54.67-17.05,109.35c-.16,1.05-.15,2.13-.33,4.85a101.55,101.55,0,0,0,22.24-16.52c1.39-1.37.61-3.38.46-5.18-3.38-40.4,8.92-74.76,40.54-100.85,16.64-13.73,36-18,57.09-11.2A39.42,39.42,0,0,1,506.4,117.1c1,1.07,1.85,3,3.74,2.21,1.47-.59,1-2.33,1.28-3.6,1.84-8.69,3-9.71,11.65-9.56a121,121,0,0,1,13.46.87c7.57,1,9,2.73,7.84,10.92-2.11,15.38-4.65,30.71-6.93,46.07-3.27,22-7.49,43.91-9.7,66.1-.22,2.17-1.34,4.7,1.08,6.19,2.62,1.6,4.93-.19,6.69-1.78,7.76-7,14.83-14.62,16.39-25.57,4.56-32.07,8.81-64.19,13.57-96.24,3.17-21.35,4.91-43,10.75-63.85,4-14.23,9.24-27.83,21.12-37.68C610.33.41,624.82-2,640.27,4.55c15,6.33,20.06,19.37,20.56,34.43,1.17,35.18-10,67.39-24.65,98.64-11.36,24.18-26.55,46-42.36,67.4-2.61,3.53-4.38,7.2-4.57,11.73-.66,16,8.34,23.49,24,19.64,11.45-2.83,20.85-9.33,29.6-17,3.5-3.06,2.61-7,2.65-10.68.24-27.88,7.79-53.35,25.32-75.36,15.2-19.08,34-31.46,59.55-30.22,14.33.7,26.69,5.82,36.4,16.5.68-.53,1.24-.75,1.31-1.07,2.87-12.69,2.86-12.69,16.25-12.5,18.76.26,20,1.39,17.26,19.72-4.56,30.94-9.46,61.83-14.18,92.75-.44,2.88-.5,5.82-.87,8.72-.7,5.47,1,9.25,6.87,10.39,5,1,6.55,4.16,5.69,9-.36,2-.29,4-.56,6-2,14.84-4.87,17.3-20,17.27-16.58,0-21.8-3.84-27.75-20.66-3.59,2.89-7,5.73-10.46,8.43C719.12,274,689.68,276.61,670,264a41.82,41.82,0,0,1-12.26-11.46c-2.6-3.82-4.79-3.59-8.15-1-7.26,5.7-14.73,11.14-23.35,14.76a66.65,66.65,0,0,1-37.66,4.45,36.32,36.32,0,0,1-24.49-15.36c-2.57-3.62-4-3.53-7.19-.72-9,8-18.4,15-31.19,16.07-16.84,1.41-24.51-2.63-30.91-18.14-1.93-4.69-3.42-1.67-5.1-.18-9.92,8.78-20.72,16.07-34,18.47-18.4,3.32-35.52,1-49.27-13.18-2.59-2.67-4.43-2.94-7.28-.47a76.56,76.56,0,0,1-30.69,16.49c-6.12,1.64-5.4,6.77-5.9,10.85-.6,4.93,4.14,3.83,6.87,4.27,50.12,8.13,98.63,22.85,147.51,36,48.43,13,97.59,19.84,147.7,16,45.57-3.45,89.12-15.05,129.72-36.65,2.41-1.28,5.27-4.45,7.68-2.33,2,1.77-.65,5-1.46,7.43-2.17,6.63-4.42,13.25-7,19.71-1.49,3.68-.68,5.76,2.7,7.65,5.1,2.86,10,6.07,14.94,9.22,4.34,2.78,3.72,5-.81,6.93-26,11.12-52.68,19.75-80.63,24.27-71.72,11.59-142.18,4.67-212-13.91C466.46,349.56,415.73,333.65,364,321.61c-9.17-2.13-9.18-2.3-11.68,6.45-7.4,25.93-18.06,50.06-38.8,68.36-21.86,19.29-47.1,27.68-75.65,19.55-36-10.24-49.57-47.29-31-81.6,12.54-23.14,33.14-35.63,57.32-43.08,17.58-5.41,35.8-6.88,54.1-6.41,5,.13,6.92-1.49,7.55-6C327,270.67,329.89,262.77,330.09,252.89ZM729.89,136.3c-10.61,0-19.2,3.78-26.52,12.49-16.33,19.42-23,42-20.69,67.12C684,230.2,694.5,239,708.74,238.77c9-.13,16.59-3.79,23-9.79,18.82-17.45,25.44-40.06,25.24-64.65C756.89,146.45,746,136.36,729.89,136.3Zm-414.82,0c-7.39-.6-14.81,2.62-20.76,8.48-21,20.65-27.83,46.14-23.59,74.63,1.4,9.41,7.89,16,17.79,18.18,13.47,3,23.66-3.2,32.59-12,16.45-16.21,21.63-37.13,22.11-59.12C343.64,147.19,332.92,136.2,315.07,136.29ZM427,206.68a40.51,40.51,0,0,0,1.35,12.08c3.27,14.34,12.16,20.89,26.84,19.73,9.8-.78,17.37-5.93,23.74-12.89,16.51-18,21.7-40.18,21.29-63.66-.31-17.05-14.26-27.84-30.67-25.36a32.64,32.64,0,0,0-18.7,10C434.53,163.34,428.63,184.18,427,206.68ZM259.54,387.31c9.79.39,18-3.6,25.38-9.47,18.56-14.67,26.1-35.54,32-57.3.83-3-.22-4.26-3.26-4-15.92,1.19-31.95,1.56-47.08,7.7C252.93,329.76,241.79,338,236,352,227.86,371.59,238.39,387.23,259.54,387.31ZM178,136.45c-3.26-.27-6.29.67-9.24,1.74-14.46,5.26-30.9,30.36-30.25,45.78.18,4.48,3,3.13,5.16,2.52,9.73-2.71,19.49-5.36,29.07-8.54a41.8,41.8,0,0,0,18-11.47c5.5-6,7.12-13,3.8-20.56C191.48,138.86,185.1,136.88,178,136.45Zm417.59,7.87,1.21.35c1.68-2.83,3.43-5.62,5-8.51,14.79-26.94,24.58-55.46,26.92-86.27.29-3.91,1.34-8.81-3.72-10.45-5.25-1.71-8.42,2.06-10.72,6.15a56.62,56.62,0,0,0-6.11,18.5c-2.85,16.61-5.47,33.27-8.09,49.92C598.54,124.1,597.12,134.21,595.62,144.32Z" transform="translate(0 -0.94)"/><path d="M934.49,196.6A104.77,104.77,0,0,1,971,120.82c33.46-29.15,94-25.55,107.1,35.1,7.51,34.66-7.09,84.13-42.86,105.62-26.62,16-59.2,14.3-80.92-5.53C939.15,242.17,934.3,224,934.49,196.6Zm110.12-23c-.16-2.8-.2-6.64-.65-10.43-2.15-17.94-15.48-28.87-32.57-26.55-9.41,1.27-16.84,6.34-22.54,13.66-14.34,18.42-20.34,39.51-18.08,62.62,2.31,23.79,24.22,34.64,45.1,22.76a41.71,41.71,0,0,0,13.79-12.71C1039.74,208.38,1043.86,192,1044.61,173.57Z" transform="translate(0 -0.94)"/><path d="M857,234.61c18.95,0,36.92-.11,54.89,0,13.17.11,15.41,2.75,14.22,15.78-1.7,18.68-1.7,18.67-20.58,18.6-27.7-.11-55.4-.13-83.1-.35-14.72-.11-16.21-2-16.21-16.42a32.13,32.13,0,0,1,9-23.11c24.92-27,48.34-55.22,72-83.25,1.35-1.6,4-3.22,2.62-5.62-1.12-1.89-3.8-.85-5.73-.7-16.19,1.25-32.41.83-48.61.67-11.29-.12-13-2.12-11.83-13.29,2-19.75,3.47-21.44,22.36-20.52,28.59,1.39,57.19.33,85.77.76,9.32.14,9.91,1.15,10.55,10.6.74,11.07-3,19.73-10.32,28.08-24.31,27.78-48,56.08-72,84.21C859.06,231.25,858.32,232.63,857,234.61Z" transform="translate(0 -0.94)"/><path d="M56.36,132.8c12.66-15.65,26.42-25.53,44.8-27.61a28.54,28.54,0,0,1,6-.23c7.78.8,9.72,3.29,8.7,11-.24,1.78-.88,3.51-1.08,5.29-1.34,11.88-5.85,19.46-19.31,22.43-16.36,3.6-29,15-40.34,27.17-5.33,5.67-5.4,13.22-6.51,20.24-3.41,21.54-6.4,43.16-9.71,64.72-1.71,11.11-4.19,13.07-15.63,13.21q-6.07.08-12.16,0C.48,268.73-1,267.15.5,256.42c2.2-15.58,4.74-31.12,7.07-46.69,4.79-32,9.63-64,14.2-96.11.71-4.94,2.74-7.39,7.66-7.42,6.53,0,13,.13,19.56.72,5.69.53,7.87,3.66,8.51,8.63C58.16,120.7,57.65,125.83,56.36,132.8Z" transform="translate(0 -0.94)"/></svg>