<svg id="Capa_1" data-name="Capa 1" xmlns="http://www.w3.org/2000/svg" viewBox="0 0 1081 610.49"><defs><style>.cls-1{fill:#fff;}.cls-2{fill:#c4d45b;}</style></defs><path class="cls-1" d="M710,413.05c-2.19,6.77-2.62,13.15-3.56,19.38-4.12,27.18-10,54-16,80.81q-10.79,48.19-21.5,96.4a42.37,42.37,0,0,0-1,4.8c-.26,2.61-1.7,3.16-4.08,3.16-20.76-.07-41.53-.15-62.29,0-3.89,0-3.89-2.49-4.44-4.8-4.17-17.52-8.25-35.06-12.39-52.58q-23.13-97.69-46.28-195.38c-1.92-8.12-3.85-16.24-5.76-24.29,1.44-1.7,3.2-1.05,4.73-1.05q28.7-.07,57.38,0c5.09,0,5.14,0,6.1,5.22q5.61,30.33,11.15,60.66c5,27.57,10,55.13,14.8,82.73,3.3,19,6.23,38.07,9.34,57.1.22,1.39,0,2.94,1.69,4.46.85-4.94,1.68-9.55,2.43-14.17,5.81-35.38,13.14-70.46,20.48-105.53q8.93-42.74,17.92-85.46c1-5,1-5,5.76-5h57.38c4.78,0,4.81,0,5.64,4.49,8.37,44.52,16.87,89,25,133.57,4,22,7.3,44.16,10.18,66.35a6.36,6.36,0,0,0,1.52,3.87c1-5.89,1.86-10.89,2.62-15.9C792.26,496.11,799,460.53,806,425q7.93-40.15,15.93-80.29c1-5.17,1-5.2,6.13-5.2h53.56c.73,0,1.46.05,2.18,0,2.73-.21,3,1.12,2.34,3.36-1.84,6.85-3.55,13.74-5.32,20.61L816.56,612.31a14.77,14.77,0,0,0-.36,1.6c-.44,2.74-1.87,3.73-4.79,3.72-20-.14-40.07-.06-60.11-.08-3.95,0-4-.07-4.79-4.15-9.37-47.65-18.86-95.28-28-143-3.46-18.05-5.73-36.31-7.92-54.56C710.49,415.17,710.31,414.48,710,413.05Z" transform="translate(-12 -9.76)"/><path class="cls-1" d="M239.7,474.57c.51-79.14,63.63-141.63,141.75-141.91,78.46-.28,142,63.48,142.05,142s-64.72,142.21-142.18,142C305.57,616.59,240.14,555,239.7,474.57Zm31.78,9.07c4,39.7,22.09,69.6,56,88.26,40.11,22.05,80,19.45,118.13-5.95,17.1-11.4,29.48-27,37.42-45.92,4.77-11.39,8.26-23.12,8.76-36.34C418.24,507.54,345.26,507.54,271.48,483.64Z" transform="translate(-12 -9.76)"/><path class="cls-1" d="M163.28,467.47c1.51,1.19,3.36,1.36,5.05,1.95,21.73,7.61,38.31,20.86,46,43.24a73.69,73.69,0,0,1-21.12,79.1c-12.59,11.2-27.48,17.58-43.56,21.58-18.82,4.69-38,6.41-57.34,6.77A566.07,566.07,0,0,1,23,617.64c-2.17-.22-4.32-.7-6.49-.83-5.22-.31-4.51-1.08-4.51-5.35q0-131.65,0-263.31c0-5,0-5,5.49-5.79a529.41,529.41,0,0,1,63.66-4.81A395.34,395.34,0,0,1,128.63,339c17.78,1.77,34.6,6.47,50,15.8,32.73,19.79,40,64.11,15,92-7,7.87-15.63,13.55-25.19,17.89C166.72,465.49,164.62,465.74,163.28,467.47ZM74.43,533c0,12,.07,24-.05,36.05,0,2.77.85,3.77,3.65,4,11.46,1,22.92,1.29,34.33-.33,8.91-1.26,17.41-3.83,24.87-9.14,17.81-12.67,20.08-40.24,4.54-55.15-6-5.71-13.27-8.85-21.1-10.91-14.29-3.77-28.9-2.9-43.45-3-2.69,0-2.81,1.52-2.8,3.53C74.45,509.71,74.43,521.36,74.43,533Zm0-115.31c0,9.46.07,18.93-.05,28.4,0,2.54.65,3.57,3.36,3.51,8.73-.2,17.49.15,26.2-.38,9.89-.6,19.43-2.93,27.82-8.6,10.16-6.87,14.43-16.64,13.4-28.64s-7.7-20.1-18.77-24.62a42.09,42.09,0,0,0-6.74-2.19c-13.88-3.09-27.83-2.26-41.81-.68-2.89.33-3.48,1.66-3.45,4.25C74.5,398.41,74.43,408.06,74.43,417.71Z" transform="translate(-12 -9.76)"/><path class="cls-2" d="M921.23,116.41V17.88c0-1.1,0-2.19,0-3.28.08-4.75.08-4.81,4.89-4.82q26.49,0,53,0c4.41,0,4.41.1,4.5,4.66,0,1.45,0,2.91,0,4.37q.1,127,.25,254.05c0,7.46.68,14.9.92,22.36.15,4.46.05,4.54-4.45,4.55q-23.22.06-46.44,0c-4.44,0-4.39-.09-4.76-4.55-.64-7.78-1.35-15.55-2-23.26-2.15-.23-2.32,1.37-3,2.31-13.24,19-31.79,28.22-54.5,29.8-16,1.11-31.15-1.9-45.13-10-17.89-10.39-30-25.72-37.59-44.69-8.3-20.72-10.16-42.24-7.84-64.33,1.94-18.41,7.11-35.65,17.53-51.07,14.4-21.32,34.12-34.39,59.85-37.88,15.86-2.16,31.19-.54,45.79,6.36a46,46,0,0,1,15.92,12.18,22.6,22.6,0,0,0,1.9,1.89C920.13,116.6,920.37,116.5,921.23,116.41Zm0,80.78c-.32-6.69.28-14.12-.72-21.58A37.16,37.16,0,0,0,875.32,144c-13.57,3.08-22.26,11.72-27.81,24-6.2,13.68-6.91,28.18-5.48,42.79a60.5,60.5,0,0,0,7.43,23.8c8.79,15.66,23.91,21.44,37.75,20,16.78-1.78,28.31-12.66,32.41-29.43C921.81,216.12,921.08,207,921.25,197.19Z" transform="translate(-12 -9.76)"/><path class="cls-2" d="M91.76,304.15c-24.23-.21-47.79-4-70.34-13.21-8.22-3.34-8.23-3.35-6.12-12q4.86-19.87,9.76-39.73c.88-3.53,1-3.59,4.35-2A153.36,153.36,0,0,0,73.53,251c15.75,2.35,31.55,3.55,46.83-2.59,9.11-3.66,15.62-9.79,17.72-19.86s-.71-18.32-8.13-25.17c-7.09-6.54-15.73-10.48-24.5-14.07-9.09-3.72-18.36-7-27.45-10.72a127.91,127.91,0,0,1-36.7-22.31c-17.51-15.43-26.11-34.91-24.58-58.17C18.64,69,33.65,48,58.93,34.1,73.67,26,89.66,22.24,106.35,20.69a187.27,187.27,0,0,1,61.17,4.73,133,133,0,0,1,20.16,6.77c2.49,1,3.67,2.1,2.75,5.26-4.11,14.14-7.86,28.39-11.81,42.58-1,3.66-1.23,3.8-4.86,2.19a126.51,126.51,0,0,0-38.28-10.39c-12.52-1.27-25.1-2-37.22,2.59-5.53,2.11-10.44,5.13-14,10.08-6.58,9.31-5.74,20.7,2.19,29a47.26,47.26,0,0,0,11.88,8.63c11.09,6,22.9,10.26,34.63,14.76,15.37,5.89,30,13.14,42.76,23.76,16.79,14,25.47,31.87,26.45,53.61.92,20.44-4.45,38.88-17.5,54.86-9.33,11.43-21.3,19.23-34.75,24.83-12.35,5.14-25.29,7.86-38.59,9.24C104.84,303.82,98.32,304,91.76,304.15Z" transform="translate(-12 -9.76)"/><path class="cls-2" d="M683.76,279.52c-3,2.9-5.32,5.16-7.7,7.3-12.44,11.2-27.37,16.23-43.8,17.24-11.53.71-22.92-.05-33.76-4.62-19.07-8.06-31.49-22-36-42.27-4.32-19.41-1.11-37.72,10.59-54,8.16-11.35,19.41-19.06,32.2-24.51a147.77,147.77,0,0,1,40-10.31,247.69,247.69,0,0,1,28.27-2.08c4.44,0,4.56-.25,4.36-4.71-.45-9.91-6-16.25-14.73-19.8-8.89-3.63-18.32-4.29-27.89-3.45a120.24,120.24,0,0,0-45.82,13.13c-2.17,1.13-3.22.76-3.9-1.67-3.2-11.38-6.46-22.73-9.87-34-.63-2.09.11-3,1.7-3.9A97.17,97.17,0,0,1,590.32,106,169.79,169.79,0,0,1,636,96c16.06-1.42,32-1.17,47.69,2.63,16,3.86,29.82,11.46,40.11,24.68,8.36,10.75,12.91,23.12,15.07,36.42a190.08,190.08,0,0,1,2,30.44q0,38.79.16,77.56A183.1,183.1,0,0,0,743,294.89c.71,4.6.45,4.87-4.39,4.88q-23.22,0-46.43,0c-4.64,0-4.67-.06-5.57-4.69C685.71,290.27,684.86,285.45,683.76,279.52Zm-3.82-58.77c0-3.64,0-7.27,0-10.91-.06-4.27-.1-4.32-4.18-4.32-3.45,0-6.93-.05-10.36.27-8.52.77-16.94,2.22-24.89,5.54-9.66,4-16.32,10.64-18.15,21.41C620.06,246.15,628,258.11,641,260.1c6.54,1,13.18.72,19.23-2.29,11.86-5.92,19.66-14.79,19.67-28.88C680,226.21,679.94,223.48,679.94,220.75Z" transform="translate(-12 -9.76)"/><path class="cls-2" d="M412.3,217c0,14.57-.38,29.14.12,43.69.4,11.79.46,23.64,2.57,35.33.61,3.37.31,3.74-3.27,3.76-16.21.05-32.41,0-48.62.08-3,0-4.16-1.18-4.54-4-.57-4.32-1.43-8.61-2.3-12.88-.47-2.36-1.44-2.65-3.28-1-2.57,2.31-4.86,5-7.56,7.09-12,9.43-25.74,14.11-40.82,15-12.09.74-24-.12-35.29-5.08-18.65-8.16-30.79-22.09-35-41.86-4.55-21.36-.56-41.27,14-58.28,7.87-9.17,17.86-15.47,28.86-20.13,16.23-6.89,33.29-10.22,50.83-11.45,6.17-.44,12.32-1.11,18.51-.91,2.74.09,3.36-1.16,3.38-3.62.09-8.58-5.24-16.7-13.87-20.49-8.87-3.89-18.28-4.76-27.8-4-16.29,1.3-31.88,5.27-46.44,12.92-3.19,1.68-3.61,1.52-4.61-1.84-3.31-11.16-6.43-22.37-9.72-33.53-.58-2,0-3.08,1.67-4a110.85,110.85,0,0,1,13-5.73A172.53,172.53,0,0,1,307.77,96c16.07-1.4,32-1.26,47.69,2.65,30.21,7.54,48.3,26.85,54.48,57.36a118,118,0,0,1,2.3,24.38c-.09,12.2,0,24.4,0,36.6Zm-60.41,3.74c0-3.82-.1-7.65,0-11.46.11-2.76-.82-3.84-3.73-3.83A117.21,117.21,0,0,0,327,207.09c-6.24,1.17-12.41,2.77-18.08,5.87-7.39,4-12.77,9.7-14.37,18.18-2.37,12.56,2.48,25.13,16.18,28.6,2.87.73,5.77.56,8.67.69,14.66.69,33.5-13.08,32.49-32.61C351.79,225.46,351.9,223.09,351.89,220.72Z" transform="translate(-12 -9.76)"/><path class="cls-1" d="M919.43,478.62V347a30.57,30.57,0,0,0,0-3.83c-.39-3,1.17-3.65,3.82-3.64,18.39.07,36.79,0,55.18,0,4,0,4,.12,4.06,3.87,0,1.27,0,2.55,0,3.82v210.9c0,6.57,0,6.57,6.76,6.57H1087c7,0,5.9.05,5.91,5.85q.06,21,0,42.07c0,4.92,0,4.95-5.13,4.95H924.46c-5,0-5,0-5-5.07Q919.43,545.55,919.43,478.62Z" transform="translate(-12 -9.76)"/><path class="cls-2" d="M461.34,154.55q0-69.12,0-138.23c0-6.9-.65-6.55,6.44-6.55H518c5.63,0,5.66,0,5.66,5.67q0,115.56,0,231.11,0,24,0,48.08c0,5.09-.05,5.14-5.05,5.14q-25.95,0-51.91,0c-5.36,0-5.39,0-5.4-5.37Q461.33,224.48,461.34,154.55Z" transform="translate(-12 -9.76)"/><path class="cls-2" d="M1089.9,55.39c1.1,19.43-13.83,42.6-43,42.6-24.16,0-42.76-17.5-43-41.83-.21-26.72,21-42.72,43.27-42.58C1075,13.74,1090.89,36,1089.9,55.39Zm-74.76.1c-.65,12.93,7.24,24.43,16,29.09,10.81,5.73,21.62,5.9,32.28-.14,17-9.65,19.66-32.93,10.74-47-7.08-11.15-17.44-16.53-30.53-15.07A32,32,0,0,0,1015.14,55.49Z" transform="translate(-12 -9.76)"/><path class="cls-2" d="M1057.31,56.54c6.28,3.44,7,9.37,8.34,15.05,1.43,6.22,1.48,6-4.85,6.11-3.11,0-4.76-1-5.39-4-.47-2.3-1.11-4.59-1.81-6.84a9.5,9.5,0,0,0-11.16-6.32c-1.67.38-1.84,1.51-1.84,2.84,0,3.28,0,6.55,0,9.82-.07,4.4-.1,4.4-4.67,4.44-.55,0-1.1,0-1.64,0-2.53.24-3.57-.8-3.55-3.42.09-11.83,0-23.65,0-35.47,0-1.71,0-3.29,2.34-3.57,7.77-1,15.55-1.82,23.3.08,2.66.65,5.21,1.67,6.95,4,3.89,5.21,2.9,11.48-2.45,15.27C1060,55.14,1059,55.59,1057.31,56.54Zm-16.6-8.74c0,6.19.19,6.33,6.42,5.86a11.13,11.13,0,0,0,4.66-1.27c4.08-2.25,4.19-7.07.29-9.67a8.77,8.77,0,0,0-4.65-1.19C1040.8,41.17,1040.71,41.25,1040.71,47.8Z" transform="translate(-12 -9.76)"/></svg>